<svg id="ehePznK41Hy1" xmlns="http://www.w3.org/2000/svg" xmlns:xlink="http://www.w3.org/1999/xlink" viewBox="0 0 405 500" shape-rendering="geometricPrecision" text-rendering="geometricPrecision"><g transform="matrix(-.1 0 0 0.1 696.25-283.65)"><path d="M6248,7508l-648-291v-1837-1837l650-335l650-335v2463c0,1355-1,2464-2,2464-2,0-294-132-650-292Z" fill="#252323"/><path d="M4653,7263l-473-255v-1633-1632l471-292c258-161,477-295,485-298c12-4,14,283,14,2181c0,1742-3,2186-12,2186-7-1-226-116-485-257Z" fill="#252323"/><path d="M3335,6956l-360-214v-1373-1373l350-239c193-131,358-243,368-248c16-9,17,81,17,1826c0,1009-3,1835-7,1835-5,0-170-97-368-214Z" fill="#1bbc6f"/></g></svg>
